<svg width="16" height="16" viewBox="0 0 16 16" fill="none" xmlns="http://www.w3.org/2000/svg">
<g clip-path="url(#clip0_6067_91004)">
<path fill-rule="evenodd" clip-rule="evenodd" d="M4.8776 1.36754C5.14983 0.55086 5.91411 0 6.77497 0H14.0001C15.1047 0 16.0001 0.895431 16.0001 2V14C16.0001 15.1046 15.1047 16 14.0001 16H2.77497C1.40986 16 0.445917 14.6626 0.877604 13.3675L4.8776 1.36754ZM7.68821 3.59996C7.68821 3.24097 7.97923 2.94996 8.33821 2.94996H11.9573C12.5266 2.94996 12.9882 3.41153 12.9882 3.98091V10.75H13.6027C14.1701 10.75 14.5744 11.3006 14.4046 11.842L13.8848 13.4993C13.7774 13.8418 13.4126 14.0324 13.0701 13.925C12.7276 13.8175 12.537 13.4528 12.6444 13.1102L12.977 12.05H5.56211L5.89464 13.1102C6.00207 13.4528 5.81148 13.8175 5.46895 13.925C5.12641 14.0324 4.76165 13.8418 4.65421 13.4993L4.13443 11.842C3.96463 11.3006 4.36901 10.75 4.93639 10.75H11.6882V4.24996H8.33821C7.97923 4.24996 7.68821 3.95894 7.68821 3.59996ZM5.78344 8.7C5.78344 8.34101 6.07446 8.05 6.43344 8.05H10.0525C10.4115 8.05 10.7025 8.34101 10.7025 8.7C10.7025 9.05898 10.4115 9.35 10.0525 9.35H6.43344C6.07446 9.35 5.78344 9.05898 5.78344 8.7ZM7.00489 5.75C6.6459 5.75 6.35489 6.04102 6.35489 6.4C6.35489 6.75899 6.6459 7.05 7.00489 7.05H10.0525C10.4115 7.05 10.7025 6.75899 10.7025 6.4C10.7025 6.04102 10.4115 5.75 10.0525 5.75H7.00489Z" fill="#00CCAE"/>
</g>
<defs>
<clipPath id="clip0_6067_91004">
<rect width="16" height="16" fill="white"/>
</clipPath>
</defs>
</svg>
